<svg width="305" height="203" fill="none" xmlns="http://www.w3.org/2000/svg"><g opacity=".923"><path d="M249.892 200.381s-7.396-36.82-1.31-64.417c6.085-27.597-6.95-23.259-1.037-42.066 5.912-18.807-8.167-12.495-1.578-31.438 6.59-18.944-6.863-18.743-1.8-33.46 4.76 11.156 16.924 18.59 13.856 31.503-3.068 12.912 11.66 21.702 5.207 36.29-6.453 14.589 17.688 43.67 11.35 71.644-6.337 27.974-21.864 52.491-24.688 31.944z" fill="url(#paint0_linear)"/><path d="M233.122 202.47s41.266-68.193 38.249-99.154c-3.018-30.96 22.628-31.846 23.838-3.644 1.209 28.202-39.61 109.676-57.838 115.408-18.227 5.733-4.249-12.61-4.249-12.61z" fill="url(#paint1_linear)"/><path d="M281.929 79.277s13.035 47.798-50.362 136.912M271.529 107.4s8.052 4.645 8.174 10.752a83.325 83.325 0 0115.21-12.157" stroke="#fff" stroke-width=".66"/><path d="M267.417 129.466s5.661 6.193 5.481 11.35c0 0 8.915-8.109 15.008-8.189m-29.34 20.525s4.84 5.647 4.235 11.307c8.296-3.694 13.035-3.212 13.035-3.212m-25.682 9.881a16.305 16.305 0 012.967 11.523c6.936-4.249 12.892-2.694 12.892-2.694m-23.773 6.403s2.247 6.215 1.728 11.429c6.734-2.492 11.472-.886 11.472-.886" stroke="#fff" stroke-width=".66"/><path d="M245.884 197.414s1.102-56.058 14.533-73.335c13.431-17.277-1.484-27.439-12.805-11.127-11.321 16.312-17.659 80.113-8.995 90.361 8.664 10.248 7.267-5.899 7.267-5.899z" fill="url(#paint2_linear)"/><path d="M263.175 105.815s-25.725 23.521-21.526 100.342m17.14-79.702s-6.532-.266-8.901 3.32a58.701 58.701 0 00-4.472-12.963" stroke="#fff" stroke-width=".66"/><path d="M252.934 141.118s-5.689 1.556-7.526 4.689c0 0-2.247-8.174-5.84-10.515m9.744 23.247s-4.998 1.541-6.77 5.128c-3.543-5.315-6.539-6.806-6.539-6.806m11.537 15.513a11.466 11.466 0 00-6.1 5.761c-2.528-5.127-6.654-6.445-6.654-6.445m11.724 12.725s-3.665 2.881-5.322 6.143c-3.068-4.004-6.481-4.839-6.481-4.839" stroke="#fff" stroke-width=".66"/></g><g opacity=".923"><path opacity=".522" fill-rule="evenodd" clip-rule="evenodd" d="M38.538 185.843a1 1 0 00.446-1.019.995.995 0 00-1.153-.809 1.001 1.001 0 00-.405 1.804 1 1 0 001.112.024zm-7.553-.013a1 1 0 11-1.152-.815.994.994 0 011.152.815zm-7.82 3.156a1 1 0 00.821-1.15.996.996 0 00-1.152-.821 1 1 0 00.331 1.971zm-6.178-.143a1 1 0 11-1.975.314 1 1 0 011.975-.314zm-8.464 2.009a1 1 0 00.464-1.014 1.007 1.007 0 00-1.134-.828 1 1 0 10.67 1.842zm-7.365 1.135a1 1 0 00.83-1.139 1.006 1.006 0 00-1.159-.834 1 1 0 00.329 1.973zm1.827 4.843a1 1 0 11-1.153-.815.994.994 0 011.153.815zm6.549.016a1 1 0 00.451-1.016.995.995 0 00-1.153-.815 1 1 0 10.702 1.831zm8.451-2.016a1 1 0 11-1.97.34 1 1 0 011.97-.34zm6.186-.845a1 1 0 00.814-1.156 1.013 1.013 0 00-1.159-.816 1.001 1.001 0 00.345 1.972zm7.814-2.155a1 1 0 11-1.97.34 1 1 0 011.97-.34zm7.186.155a1 1 0 10-.342-1.97 1 1 0 00.342 1.97zM3.985 202.83a1 1 0 11-1.97.34 1 1 0 011.97-.34zm6.186.155a1 1 0 10-.342-1.97 1 1 0 00.342 1.97zm8.814-2.155a.999.999 0 11-1.968.34.999.999 0 011.968-.34zm6.549-.985a.999.999 0 10-1.066-1.69.999.999 0 001.066 1.69zm7.451-2.015a1 1 0 11-1.152-.815.994.994 0 011.152.815zm7.549.016a1 1 0 00.451-1.016.995.995 0 00-1.152-.815 1 1 0 10.701 1.831zM4.985 208.83a1 1 0 11-1.153-.815.994.994 0 011.153.815zm6.549.016a1 1 0 00.451-1.016.995.995 0 00-1.152-.815 1 1 0 10.701 1.831zm8.451-2.016a1 1 0 11-1.97.34 1 1 0 011.97-.34zm6.186-.845a1 1 0 10-.342-1.97 1 1 0 00.342 1.97zm8.814-2.155a1 1 0 11-1.97.34 1 1 0 011.97-.34zm6.186.155a1 1 0 10-.342-1.97 1 1 0 00.342 1.97zM5.985 214.83a1 1 0 11-1.97.34 1 1 0 011.97-.34zm6.549.015a1 1 0 10-1.067-1.69 1 1 0 001.067 1.69zm8.451-2.015a.999.999 0 11-1.968.34.999.999 0 011.968-.34zm6.549-.985a.999.999 0 10-1.066-1.69.999.999 0 001.066 1.69zm8.451-2.015a.999.999 0 11-1.968.34.999.999 0 011.968-.34zm6.549.015a.999.999 0 10-1.066-1.69.999.999 0 001.066 1.69zM6.985 220.83a.999.999 0 11-1.968.34.999.999 0 011.968-.34zm6.186.155a1 1 0 10-.342-1.97 1 1 0 00.342 1.97zm8.814-3.155a1 1 0 11-1.97.34 1 1 0 011.97-.34zm6.186.155a1 1 0 10-.342-1.97 1 1 0 00.342 1.97zm8.814-2.155a1 1 0 11-1.97.34 1 1 0 011.97-.34zm6.186.155a1 1 0 10-.342-1.97 1 1 0 00.342 1.97zM7.985 226.83a1 1 0 11-1.97.34 1 1 0 011.97-.34zm6.549.016a1 1 0 00.451-1.016.995.995 0 00-1.152-.815 1 1 0 10.701 1.831zm8.451-3.016a1 1 0 11-1.152-.815.994.994 0 011.152.815zm6.549.015a.999.999 0 10-1.066-1.69.999.999 0 001.066 1.69zm8.451-2.015a.999.999 0 11-1.968.34.999.999 0 011.968-.34zm6.549.015a.999.999 0 10-1.066-1.69.999.999 0 001.066 1.69z" fill="url(#paint3_linear)"/><path d="M274.501 187.25s8.836-51.484 22.057-50.64c13.222.845.262 32.981-22.057 50.64z" fill="url(#paint4_linear)"/><path fill-rule="evenodd" clip-rule="evenodd" d="M294.981 142.168c-6.094 28.435-23.436 49.767-34.159 61.03a.22.22 0 00.319.304c10.749-11.293 28.147-32.682 34.271-61.242a.22.22 0 00-.431-.092z" fill="#fff"/><path fill-rule="evenodd" clip-rule="evenodd" d="M288.016 171.787a158.402 158.402 0 01-7.935 7.059.22.22 0 00-.028.309.218.218 0 00.31.029 159.149 159.149 0 007.956-7.078.22.22 0 10-.303-.319zm7.046-13.445a159.295 159.295 0 01-7.935 7.059.22.22 0 00.281.338 159.572 159.572 0 007.958-7.079.22.22 0 10-.304-.318zm4.434-14.067c-.883 1.118-1.952 2.294-3.091 3.432a55.724 55.724 0 01-3.722 3.397.221.221 0 00-.029.31.22.22 0 00.31.029 56.642 56.642 0 003.752-3.424c1.149-1.149 2.229-2.335 3.126-3.472a.22.22 0 10-.346-.272zm-9.252 1.278c.694 2.854 1.086 6.483 1.176 9.576a.22.22 0 00.44-.013c-.092-3.121-.484-6.767-1.188-9.667a.22.22 0 00-.428.104zm-6.617 15.051c.694 2.855 1.085 6.482 1.175 9.575a.222.222 0 00.227.215.222.222 0 00.213-.228c-.092-3.12-.483-6.766-1.187-9.666a.22.22 0 00-.428.104z" fill="#fff"/></g><g opacity=".923"><path opacity=".522" fill-rule="evenodd" clip-rule="evenodd" d="M309.779-.658a.88.88 0 10-.672-1.625.88.88 0 00.672 1.625zm-6.543-1.165a.88.88 0 11-1.76-.006.88.88 0 011.76.006zm-7.26 1.54a.88.88 0 10.016-1.76.88.88 0 00-.016 1.76zm-5.332-1.068a.88.88 0 11-1.758-.028.88.88 0 011.758.028zm-7.642.448a.882.882 0 00.557-.808.88.88 0 10-.557.808zm-6.557-.142a.88.88 0 10.029-1.76.88.88 0 00-.029 1.76zm.844 4.476a.878.878 0 01-1.505.616.88.88 0 111.505-.616zm5.673 1.014a.878.878 0 00.546-.811.874.874 0 00-.874-.882.88.88 0 10.328 1.693zm7.632-.455a.88.88 0 11-1.76-.007.88.88 0 011.76.007zm5.49.213a.881.881 0 00.883-.877.891.891 0 00-.88-.885.88.88 0 00-.003 1.762zm7.102-.674a.88.88 0 11-1.76-.007.88.88 0 011.76.007zm6.203 1.233a.881.881 0 00.883-.877.88.88 0 10-.883.877zm-32.15 4.022a.88.88 0 11-1.76-.007.88.88 0 011.76.007zm5.337 1.08a.88.88 0 10.004-1.761.88.88 0 00-.004 1.76zm7.968-.522a.88.88 0 11-1.76-.006.88.88 0 011.76.006zm5.826.148a.88.88 0 10-.669-1.629.88.88 0 00.669 1.629zm6.765-.608a.878.878 0 01-1.505.616.88.88 0 111.505-.616zm6.54 1.167a.88.88 0 10-.668-1.628.88.88 0 00.668 1.628zm-32.486 4.087a.88.88 0 11-1.759-.006.88.88 0 011.759.006zm5.673 1.014a.88.88 0 10-.668-1.628.88.88 0 00.668 1.628zm7.632-.455a.88.88 0 11-1.76-.007.88.88 0 011.76.007zm5.49.213a.88.88 0 10.004-1.76.88.88 0 00-.004 1.76zm7.968-.52a.88.88 0 11-1.76-.008.88.88 0 011.76.008zm5.337 1.079a.88.88 0 10.004-1.76.88.88 0 00-.004 1.76zm-32.15 4.022a.88.88 0 11-1.76-.008.88.88 0 011.76.008zm5.673 1.014a.88.88 0 10-.67-1.63.88.88 0 00.67 1.63zm7.632-.456a.88.88 0 11-1.76-.005.88.88 0 011.76.005zm5.825.148a.88.88 0 10-.665-1.628.88.88 0 00.665 1.628zm7.633-.456a.88.88 0 11-1.76-.005.88.88 0 011.76.005zm5.672 1.015a.88.88 0 10-.665-1.629.88.88 0 00.665 1.629zm-32.486 4.087a.879.879 0 01-1.505.616.881.881 0 01.631-1.499.88.88 0 01.874.883zm5.337 1.08a.88.88 0 10.005-1.76.88.88 0 00-.005 1.76zm8.121-1.387a.88.88 0 11-1.76-.007.88.88 0 011.76.006zm5.337 1.08a.881.881 0 00.883-.877.88.88 0 10-.883.877zm7.968-.521a.88.88 0 11-1.76-.007.88.88 0 011.76.007zm5.337 1.08a.88.88 0 10.005-1.762.88.88 0 00-.005 1.761zm-32.15 4.021a.88.88 0 11-1.76-.007.88.88 0 011.76.007zm5.673 1.014a.878.878 0 00.546-.811.872.872 0 00-.874-.882.88.88 0 10.328 1.693zm7.785-1.322a.88.88 0 11-1.76-.006.88.88 0 011.76.006zm5.673 1.014a.879.879 0 00-.328-1.694.88.88 0 10.328 1.694zm7.632-.455a.88.88 0 11-1.76-.006.88.88 0 011.76.006zm5.673 1.014a.879.879 0 00-.328-1.694.88.88 0 10.328 1.694z" fill="url(#paint5_linear)"/><path d="M272.384 206.429s14.113-39.334 24.412-36.833c10.3 2.502-4.375 26.021-24.412 36.833z" fill="url(#paint6_linear)"/><path fill-rule="evenodd" clip-rule="evenodd" d="M294.781 173.756c-8.751 21.556-25.377 35.953-35.389 43.337a.176.176 0 00.208.284c10.038-7.404 26.716-21.839 35.508-43.488a.176.176 0 10-.327-.133z" fill="#fff"/><path fill-rule="evenodd" clip-rule="evenodd" d="M285.18 196.124a126.928 126.928 0 01-7.233 4.459.176.176 0 00.175.305 126.823 126.823 0 007.252-4.471.176.176 0 10-.194-.293zm7.418-9.614a126.58 126.58 0 01-7.232 4.459.176.176 0 00-.065.24.176.176 0 00.24.065 126.823 126.823 0 007.252-4.471.176.176 0 10-.195-.293zm5.448-10.467a32.2 32.2 0 01-2.912 2.275 44.708 44.708 0 01-3.404 2.159.176.176 0 00.174.306 44.94 44.94 0 003.432-2.177 32.395 32.395 0 002.944-2.3.177.177 0 00.015-.249.178.178 0 00-.249-.014zm-7.466-.278c.15 2.345-.046 5.258-.405 7.708a.177.177 0 00.349.051c.361-2.472.559-5.399.407-7.781a.176.176 0 00-.351.022zm-7.305 10.939c.151 2.345-.046 5.257-.404 7.707a.177.177 0 00.149.2.177.177 0 00.199-.149c.361-2.471.56-5.398.408-7.781a.177.177 0 00-.352.023z" fill="#fff"/></g><g opacity=".923"><path d="M231.437 187.469s2.891-24.947-3.515-42.743c-6.406-17.797 3.505-15.935-2.162-27.926-5.668-11.992 5.151-8.905-1.025-20.934-6.176-12.03 3.755-12.939-1.001-22.288-2.733 7.753-11.183 13.617-8.023 21.927 3.16 8.31-7.085 15.269-1.313 24.426 5.772 9.158-10.001 30.278-3.382 48.305 6.618 18.027 19.77 33.053 20.421 19.233z" fill="url(#paint7_linear)"/><path d="M241.569 206.957s-35.704-47.074-35.878-70.131c-.175-23.057-19.149-21.723-17.855-.839 1.293 20.883 37.697 77.781 51.578 80.595 13.881 2.814 2.155-9.625 2.155-9.625z" fill="url(#paint8_linear)"/><path d="M196.045 119.923s-5.906 36.245 47.734 97.027m-37.889-77.101s-5.575 4.048-5.192 8.559a61.777 61.777 0 00-12.155-7.783" stroke="#fff" stroke-width=".55"/><path d="M210.631 155.797s-3.693 5.004-3.16 8.791c0 0-7.201-5.287-11.699-4.873m23.219 12.857s-3.13 4.537-2.245 8.663c-6.402-2.08-9.858-1.357-9.858-1.357m19.697 5.294a12.085 12.085 0 00-1.294 8.724c-5.442-2.595-9.712-.987-9.712-.987m18.021 2.878s-1.175 4.756-.389 8.559c-5.157-1.315-8.526.236-8.526.236" stroke="#fff" stroke-width=".55"/><path d="M231.77 204.219s-5.156-41.24-16.396-52.936c-11.24-11.695-1.032-20.342 8.578-9.194 9.609 11.147 19.224 57.689 13.632 65.915-5.593 8.226-5.814-3.785-5.814-3.785z" fill="url(#paint9_linear)"/><path d="M211.926 138.033s20.786 15.346 23.643 72.303m-18.811-57.427s4.795-.702 6.819 1.758a43.504 43.504 0 012.293-9.903" stroke="#fff" stroke-width=".55"/><path d="M222.211 163.265s4.314.705 5.911 2.873c0 0 1.023-6.2 3.491-8.204m-5.382 17.892s3.804.749 5.388 3.256c2.2-4.193 4.293-5.524 4.293-5.524m-7.303 12.33a8.5 8.5 0 014.943 3.774c1.466-3.976 4.406-5.267 4.406-5.267m-7.657 10.289s2.925 1.84 4.399 4.117c1.952-3.19 4.403-4.07 4.403-4.07" stroke="#fff" stroke-width=".55"/></g><defs><linearGradient id="paint0_linear" x1="234.632" y1="29.663" x2="302.303" y2="60.15" gradientUnits="userSpaceOnUse"><stop stop-color="#A9C6FF"/><stop offset="1" stop-color="#DCE9FF"/></linearGradient><linearGradient id="paint1_linear" x1="261.988" y1="25.175" x2="187.705" y2="90.293" gradientUnits="userSpaceOnUse"><stop stop-color="#A9C6FF"/><stop offset="1" stop-color="#DCE9FF"/></linearGradient><linearGradient id="paint2_linear" x1="253.567" y1="53.055" x2="209.119" y2="66.999" gradientUnits="userSpaceOnUse"><stop stop-color="#A9C6FF"/><stop offset="1" stop-color="#DCE9FF"/></linearGradient><linearGradient id="paint3_linear" x1="536.634" y1="1734.13" x2="1014.9" y2="-1.002" gradientUnits="userSpaceOnUse"><stop stop-color="#A9C6FF"/><stop offset="1" stop-color="#DCE9FF"/></linearGradient><linearGradient id="paint4_linear" x1="280.426" y1="151.144" x2="293.049" y2="171.773" gradientUnits="userSpaceOnUse"><stop stop-color="#A9C6FF"/><stop offset="1" stop-color="#DCE9FF"/></linearGradient><linearGradient id="paint5_linear" x1="504.849" y1="1417.25" x2="1184.47" y2="-13.386" gradientUnits="userSpaceOnUse"><stop stop-color="#A9C6FF"/><stop offset="1" stop-color="#DCE9FF"/></linearGradient><linearGradient id="paint6_linear" x1="315.803" y1="165.543" x2="288.924" y2="157.066" gradientUnits="userSpaceOnUse"><stop stop-color="#A9C6FF"/><stop offset="1" stop-color="#DCE9FF"/></linearGradient><linearGradient id="paint7_linear" x1="230.809" y1="73.277" x2="185.395" y2="102.37" gradientUnits="userSpaceOnUse"><stop stop-color="#A9C6FF"/><stop offset="1" stop-color="#DCE9FF"/></linearGradient><linearGradient id="paint8_linear" x1="206.553" y1="78.496" x2="266.358" y2="120.743" gradientUnits="userSpaceOnUse"><stop stop-color="#A9C6FF"/><stop offset="1" stop-color="#DCE9FF"/></linearGradient><linearGradient id="paint9_linear" x1="214.921" y1="98.395" x2="248.767" y2="105.231" gradientUnits="userSpaceOnUse"><stop stop-color="#A9C6FF"/><stop offset="1" stop-color="#DCE9FF"/></linearGradient></defs></svg>