<svg width="131" height="44" fill="none" xmlns="http://www.w3.org/2000/svg"><g clip-path="url(#clip0)"><path d="M61.49 33.636V15.852c.173-.035.399-.052.676-.052.277-.017.59-.026.936-.026 1.508 0 2.721.217 3.64.65.936.433 1.655 1.057 2.158 1.872.52.797.867 1.768 1.04 2.912.173 1.127.26 2.392.26 3.796 0 .572-.026 1.187-.078 1.846a11.222 11.222 0 01-.338 1.95 7.314 7.314 0 01-.728 1.846 5.345 5.345 0 01-1.3 1.586c-.537.45-1.205.815-2.002 1.092-.797.26-1.76.39-2.886.39-.416 0-.875-.026-1.378-.078zm-3.77-17.784v17.784h-2.392V34h2.392c.988 0 1.967.009 2.938.026.988.017 1.976.026 2.964.026.676 0 1.404-.052 2.184-.156a13.22 13.22 0 002.392-.546 11.954 11.954 0 002.34-1.092 7.747 7.747 0 001.976-1.716c.59-.693 1.057-1.517 1.404-2.47.347-.953.52-2.063.52-3.328 0-1.283-.173-2.4-.52-3.354-.347-.953-.815-1.777-1.404-2.47a7.97 7.97 0 00-2.028-1.716 11.154 11.154 0 00-2.418-1.066 13.432 13.432 0 00-2.574-.572 20.767 20.767 0 00-2.47-.156c-.884 0-1.768.017-2.652.052-.884.017-1.768.026-2.652.026h-2.392v.364h2.392zm19.071 6.994v.364h1.69v10.426h-1.69V34h6.916v-.364h-2.054V26.98c0-.555.078-1.049.234-1.482.173-.45.373-.832.598-1.144.225-.312.468-.546.728-.702.26-.173.477-.26.65-.26.156 0 .269.035.338.104a.422.422 0 01.182.208.46.46 0 01.052.208l.026.104a5.555 5.555 0 01-.104.624l-.052.416a2.117 2.117 0 00-.026.26c0 .45.165.763.494.936.33.156.693.234 1.092.234.555 0 .953-.147 1.196-.442.26-.295.39-.702.39-1.222 0-.693-.225-1.23-.676-1.612-.45-.399-1.04-.598-1.768-.598-.867 0-1.569.243-2.106.728a5.295 5.295 0 00-1.248 1.69h-.052v-2.184h-4.81zm12.933-5.59c0 .503.182.936.546 1.3.364.364.797.546 1.3.546.502 0 .936-.182 1.3-.546.364-.364.546-.797.546-1.3s-.182-.936-.546-1.3a1.775 1.775 0 00-1.3-.546c-.503 0-.936.182-1.3.546a1.775 1.775 0 00-.546 1.3zm-1.482 5.59v.364h1.742v10.426h-1.742V34h6.656v-.364h-1.742v-10.79h-4.914zm6.955 0v.364H96.6l5.174 11.492h.208l4.602-11.492h1.196v-.364h-3.64v.364h2.002l-2.834 7.202-3.198-7.202h1.872v-.364h-6.786zm20.981 4.264h-4.16c.017-.45.043-.919.078-1.404.052-.503.156-.962.312-1.378.156-.433.39-.789.702-1.066.329-.277.788-.416 1.378-.416.416 0 .736.095.962.286.242.19.416.425.52.702.104.277.164.555.182.832.017.277.026.511.026.702v1.742zm-4.16.364h7.67c0-.884-.156-1.638-.468-2.262-.312-.641-.711-1.161-1.196-1.56a4.856 4.856 0 00-1.638-.884 6.045 6.045 0 00-1.82-.286c-.85 0-1.647.173-2.392.52-.728.33-1.37.771-1.924 1.326a6.063 6.063 0 00-1.274 1.872 5.382 5.382 0 00-.468 2.184c0 .936.164 1.777.494 2.522.329.728.78 1.352 1.352 1.872a6.467 6.467 0 002.054 1.17c.78.26 1.62.39 2.522.39.762 0 1.412-.113 1.95-.338a4.623 4.623 0 001.352-.78c.364-.33.65-.676.858-1.04.208-.381.355-.737.442-1.066l-.364-.13c-.018.156-.104.399-.26.728-.139.33-.364.667-.676 1.014-.295.33-.685.624-1.17.884-.468.26-1.049.39-1.742.39-.78 0-1.387-.165-1.82-.494a3.162 3.162 0 01-.988-1.248 5.4 5.4 0 01-.416-1.716 23.48 23.48 0 01-.078-1.898v-1.17zm10.376 4.94c0 .503.182.936.546 1.3.364.347.797.52 1.3.52a1.82 1.82 0 001.3-.52c.364-.364.546-.797.546-1.3s-.182-.936-.546-1.3a1.776 1.776 0 00-1.3-.546c-.503 0-.936.182-1.3.546a1.775 1.775 0 00-.546 1.3z" fill="#fff"/><path d="M7.742 10.583l-6.384 10.93c-.434.748.062 1.692.899 1.692H5.48v4.359c0 5.692 4.37 10.312 9.793 10.312.682 0 1.054-.879.59-1.4l-1.178-1.333c-1.86-2.114-2.914-4.912-2.914-7.807v-4.164h3.223c.806 0 1.333-.943.9-1.691L9.54 10.583a1.02 1.02 0 00-1.798 0z" fill="#FFC01C"/><path d="M18.163 13.283l1.178 1.334c1.86 2.114 2.913 4.912 2.913 7.807v4.131H19c-.806 0-1.332.944-.898 1.692l6.384 10.93a1.02 1.02 0 001.797 0l6.385-10.963c.434-.748-.062-1.691-.9-1.691h-3.222v-4.36c0-5.692-4.37-10.311-9.794-10.311-.712 0-1.084.878-.589 1.431z" fill="#6672FB"/></g><defs><clipPath id="clip0"><path fill="#fff" d="M0 0h131v44H0z"/></clipPath></defs></svg>